# File produced by Open Asset Import Library (http://www.assimp.sf.net)
# (assimp v3.1.151885474)

mtllib Ground.mtl

# vertex positions
v 87.658615 1.518374 75.350113
v 87.658615 2.711625 75.350113
v 87.658615 2.711624 80.195091
v 87.658615 1.518374 80.195091
v -85.024986 2.711625 75.350113
v -87.658615 2.711625 75.350113
v -87.658615 2.711624 80.195091
v -85.024986 2.711624 80.195091
v -87.658615 -1.768340 75.350113
v -87.658615 -2.711631 75.350113
v -87.658615 -2.711632 80.195091
v -87.658615 -1.768340 80.195091
v 84.540260 -2.711631 75.350113
v 87.658615 -2.711631 75.350113
v 87.658615 -2.711632 80.195091
v 84.540260 -2.711632 80.195091
v -85.024986 -1.768333 -80.195091
v -85.024986 -2.711624 -80.195091
v -87.658615 -2.711624 -80.195091
v -87.658615 -1.768333 -80.195091
v 84.540260 -1.768340 80.195091
v 87.658615 -1.768340 80.195091
v -85.024986 -1.768340 80.195091
v -85.024986 -2.711632 80.195091
v 87.658615 -1.768334 -80.195091
v 87.658615 -2.711624 -80.195091
v 84.540260 -2.711624 -80.195091
v 84.540260 -1.768334 -80.195091
v -85.024986 -2.711631 75.350113
v 84.540260 2.711625 75.350113
v 84.540260 2.711624 80.195091
v 87.658615 2.711631 -76.154190
v 84.540260 2.711631 -76.154190
v -85.024986 -2.711625 -76.154190
v 84.540260 -2.711625 -76.154190
v 87.658615 -2.711625 -76.154190
v -87.658615 -1.768334 -76.154190
v -87.658615 -2.711625 -76.154190
v -85.024986 2.711631 -76.154190
v -87.658615 2.711631 -76.154190
v 87.658615 1.518381 -76.154190
v 87.658615 -1.768334 -76.154190
v 87.658615 -1.768340 75.350113
v -87.658615 1.518381 -76.154190
v -87.658615 1.518374 75.350113
v 87.658615 2.711632 -80.195091
v 87.658615 1.518381 -80.195091
v 84.540260 1.518381 -80.195091
v 84.540260 2.711632 -80.195091
v -85.024986 1.518374 80.195091
v 84.540260 1.518374 80.195091
v -85.024986 2.711632 -80.195091
v -85.024986 1.518381 -80.195091
v -87.658615 1.518381 -80.195091
v -87.658615 2.711632 -80.195091
v -87.658615 1.518374 80.195091

# UV coordinates
vt 0.003554 0.536664
vt 0.000000 0.536664
vt 0.000000 0.522232
vt 0.003554 0.522232
vt 0.014432 0.514387
vt 0.014432 0.522232
vt 0.000000 0.522232
vt 0.000000 0.514387
vt 0.018965 0.536664
vt 0.016155 0.536664
vt 0.016155 0.522232
vt 0.018965 0.522232
vt 0.492200 0.512943
vt 0.492200 0.522232
vt 0.477768 0.522232
vt 0.477768 0.512943
vt 0.958346 0.007845
vt 0.955536 0.007845
vt 0.955536 -0.000000
vt 0.958346 -0.000000
vt 0.974500 0.009289
vt 0.971690 0.009289
vt 0.971690 -0.000000
vt 0.974500 -0.000000
vt 0.974500 0.514387
vt 0.971690 0.514387
vt 0.958345 0.522232
vt 0.955536 0.522232
vt 0.955536 0.512943
vt 0.958345 0.512943
vt 0.492200 0.007845
vt 0.477768 0.007845
vt 0.014432 0.000000
vt 0.014432 0.009289
vt 0.000000 0.009289
vt 0.000000 0.000000
vt 0.465731 0.000000
vt 0.465731 0.009289
vt 0.943499 0.007845
vt 0.943499 0.512943
vt 0.943499 0.522232
vt 0.018965 0.987963
vt 0.016155 0.987963
vt 0.465731 0.514387
vt 0.465731 0.522232
vt 0.003554 0.987963
vt 0.000000 0.987963
vt 0.013345 0.987963
vt 0.013345 0.536664
vt 0.032309 0.987963
vt 0.028755 0.987963
vt 0.028755 0.536664
vt 0.032310 0.536664
vt 0.971690 0.522232
vt 0.968136 0.522232
vt 0.968136 0.512943
vt 0.971690 0.512943
vt 0.987845 0.514387
vt 0.984291 0.514387
vt 0.984291 0.009289
vt 0.987845 0.009289
vt 0.984291 -0.000000
vt 0.987845 -0.000000
vt 0.971690 0.007845
vt 0.968136 0.007845
vt 0.968136 -0.000000
vt 0.971690 -0.000000
vt 0.028755 0.522232
vt 0.032310 0.522232
vt 0.013345 0.522232
vt 0.016155 0.536664
vt 0.016155 0.522232
vt 0.016155 0.987963
vt 0.028755 1.000000
vt 0.018965 1.000000
vt 0.016155 1.000000
vt 0.013345 1.000000
vt 0.032309 1.000000
vt 0.003554 1.000000
vt 0.000000 1.000000
vt 0.477768 0.514387
vt 0.477768 0.522232
vt 0.016155 1.000000
vt 0.955536 0.512943
vt 0.955536 0.522232
vt 0.955536 0.007845
vt 0.477768 0.000000
vt 0.477768 0.009289
vt 0.955536 0.000000
vt 0.943499 0.000000
vt 0.984291 0.522232
vt 0.974500 0.522232
vt 0.987845 0.522232
vt 0.492200 0.000000
vt 0.477768 0.000000
vt 0.971690 0.522232

# vertex normals
vn 1.000000 0.000000 0.000000
vn 0.000000 1.000000 0.000000
vn -1.000000 0.000000 0.000000
vn 0.000000 -1.000000 -0.000000
vn 0.000000 0.000000 -1.000000
vn 0.000000 -0.000000 1.000000

# Mesh
g Ground
usemtl Wall
f 4/4/1 1/1/1 2/2/1
f 2/2/1 3/3/1 4/4/1
f 8/8/2 5/5/2 6/6/2
f 6/6/2 7/7/2 8/8/2
f 12/12/3 9/9/3 10/10/3
f 10/10/3 11/11/3 12/12/3
f 16/16/4 13/13/4 14/14/4
f 14/14/4 15/15/4 16/16/4
f 20/20/5 17/17/5 18/18/5
f 18/18/5 19/19/5 20/20/5
f 22/24/6 21/21/6 16/22/6
f 16/22/6 15/23/6 22/24/6
f 21/21/6 23/25/6 24/26/6
f 24/26/6 16/22/6 21/21/6
f 28/30/5 25/27/5 26/28/5
f 26/28/5 27/29/5 28/30/5
f 24/32/4 29/31/4 13/13/4
f 13/13/4 16/16/4 24/32/4
f 3/36/2 2/33/2 30/34/2
f 30/34/2 31/35/2 3/36/2
f 2/33/2 32/37/2 33/38/2
f 33/38/2 30/34/2 2/33/2
f 29/31/4 34/39/4 35/40/4
f 35/40/4 13/13/4 29/31/4
f 13/13/4 35/40/4 36/41/4
f 36/41/4 14/14/4 13/13/4
f 9/9/3 37/42/3 38/43/3
f 38/43/3 10/10/3 9/9/3
f 5/5/2 39/44/2 40/45/2
f 40/45/2 6/6/2 5/5/2
f 1/1/1 41/46/1 32/47/1
f 32/47/1 2/2/1 1/1/1
f 43/49/1 42/48/1 41/46/1
f 41/46/1 1/1/1 43/49/1
f 6/53/3 40/50/3 44/51/3
f 44/51/3 45/52/3 6/53/3
f 49/57/5 46/54/5 47/55/5
f 47/55/5 48/56/5 49/57/5
f 31/61/6 8/58/6 50/59/6
f 50/59/6 51/60/6 31/61/6
f 3/63/6 31/61/6 51/60/6
f 51/60/6 4/62/6 3/63/6
f 55/67/5 52/64/5 53/65/5
f 53/65/5 54/66/5 55/67/5
f 7/69/3 6/53/3 45/52/3
f 45/52/3 56/68/3 7/69/3
f 22/70/1 43/49/1 1/1/1
f 1/1/1 4/4/1 22/70/1
f 15/72/1 14/71/1 43/49/1
f 43/49/1 22/70/1 15/72/1
f 14/71/1 36/73/1 42/48/1
f 42/48/1 43/49/1 14/71/1
f 45/52/3 44/51/3 37/42/3
f 37/42/3 9/9/3 45/52/3
f 48/56/5 47/55/5 25/27/5
f 25/27/5 28/30/5 48/56/5
f 51/60/6 50/59/6 23/25/6
f 23/25/6 21/21/6 51/60/6
f 4/62/6 51/60/6 21/21/6
f 21/21/6 22/24/6 4/62/6
f 54/66/5 53/65/5 17/17/5
f 17/17/5 20/20/5 54/66/5
f 56/68/3 45/52/3 9/9/3
f 9/9/3 12/12/3 56/68/3
f 44/51/3 54/74/3 20/75/3
f 20/75/3 37/42/3 44/51/3
f 36/73/1 26/76/1 25/77/1
f 25/77/1 42/48/1 36/73/1
f 40/50/3 55/78/3 54/74/3
f 54/74/3 44/51/3 40/50/3
f 42/48/1 25/77/1 47/79/1
f 47/79/1 41/46/1 42/48/1
f 41/46/1 47/79/1 46/80/1
f 46/80/1 32/47/1 41/46/1
f 39/44/2 52/81/2 55/82/2
f 55/82/2 40/45/2 39/44/2
f 37/42/3 20/75/3 19/83/3
f 19/83/3 38/43/3 37/42/3
f 35/40/4 27/84/4 26/85/4
f 26/85/4 36/41/4 35/40/4
f 34/39/4 18/86/4 27/84/4
f 27/84/4 35/40/4 34/39/4
f 32/37/2 46/87/2 49/88/2
f 49/88/2 33/38/2 32/37/2
f 38/90/4 19/89/4 18/86/4
f 18/86/4 34/39/4 38/90/4
f 33/38/2 49/88/2 52/81/2
f 52/81/2 39/44/2 33/38/2
f 53/65/5 48/56/5 28/30/5
f 28/30/5 17/17/5 53/65/5
f 50/59/6 56/91/6 12/92/6
f 12/92/6 23/25/6 50/59/6
f 52/64/5 49/57/5 48/56/5
f 48/56/5 53/65/5 52/64/5
f 8/58/6 7/93/6 56/91/6
f 56/91/6 50/59/6 8/58/6
f 30/34/2 33/38/2 39/44/2
f 39/44/2 5/5/2 30/34/2
f 10/94/4 38/90/4 34/39/4
f 34/39/4 29/31/4 10/94/4
f 11/95/4 10/94/4 29/31/4
f 29/31/4 24/32/4 11/95/4
f 23/25/6 12/92/6 11/96/6
f 11/96/6 24/26/6 23/25/6
f 17/17/5 28/30/5 27/29/5
f 27/29/5 18/18/5 17/17/5
f 31/35/2 30/34/2 5/5/2
f 5/5/2 8/8/2 31/35/2
